<?xml version="1.0" encoding="utf-8"?>
<!-- Generator: Adobe Illustrator 22.0.0, SVG Export Plug-In . SVG Version: 6.00 Build 0)  -->
<svg version="1.1" xmlns="http://www.w3.org/2000/svg" xmlns:xlink="http://www.w3.org/1999/xlink" x="0px" y="0px" width="653.5px"
	 height="273.5px" viewBox="0 0 653.5 273.5" style="enable-background:new 0 0 653.5 273.5;" xml:space="preserve">
<style type="text/css">
	.st0{display:none;}
	.st1{display:inline;fill:none;stroke:#000000;stroke-width:5.5;stroke-miterlimit:10;}
	.st2{display:inline;fill:none;stroke:#000000;stroke-width:5.5;stroke-linecap:round;stroke-miterlimit:10;}
	.st3{fill:#63C2E4;}
	.st4{fill:#F1B118;}
	.st5{fill:#5EBDA3;}
	.st6{fill:#469DD5;}
	.st7{fill:#EA5E6F;}
	.st8{fill:#009EB0;}
	.st9{fill:#BCBE10;}
	.st10{fill:#E17D2F;}
</style>
<g id="Layer_2" class="st0">
	<path class="st1" d="M175.1,15.1c0,0,19.3-1.7,22.7,18c3.3,19.7,3,30.2,10.6,35.9s21.1,5.8,28.9,6.5c7.8,0.7,21.3,4.7,23.8,21.7
		s-11,31.2-18.3,38.5s-16.5,16.8-13.5,23.3s14.7,7.2,21.5,8.7s13.1,6.8,6.2,16.8c-6.8,9.8-19,17.7-24.2,21
		c-5.2,3.3-16.2,9.7-14,15.8c2.2,6.2,11.7,1.2,17.7,3.8c4.3,1.9,4.8,7.7-4.6,21.9c-8.8,13.3-16.9,20.3-26.9,27.2
		c-15.3,10.6-29.9,13.8-29.9,13.8"/>
	<path class="st1" d="M175.1,15.1c0,0-19.3-1.7-22.7,18c-3.3,19.7-3,30.2-10.6,35.9s-21.1,5.8-28.9,6.5c-7.8,0.7-21.3,4.7-23.8,21.7
		s11,31.2,18.3,38.5s16.5,16.8,13.5,23.3s-14.7,7.2-21.5,8.7s-13.1,6.8-6.2,16.8c6.8,9.8,19,17.7,24.2,21c5.2,3.3,16.2,9.7,14,15.8
		c-2.2,6.2-11.7,1.2-17.7,3.8c-4.3,1.9-4.8,7.7,4.6,21.9c8.8,13.3,16.9,20.3,26.9,27.2c15.3,10.6,29.9,13.8,29.9,13.8"/>
	<line class="st2" x1="175.1" y1="15.3" x2="175.1" y2="313.1"/>
	<line class="st1" x1="146.8" y1="62.6" x2="174.7" y2="111.1"/>
	<line class="st1" x1="250.2" y1="79.4" x2="175.4" y2="133.1"/>
	<line class="st1" x1="229.3" y1="158.9" x2="175.4" y2="213.7"/>
	<line class="st1" x1="218.8" y1="221.2" x2="175.4" y2="250.2"/>
	<line class="st1" x1="111.8" y1="165.1" x2="174.9" y2="237.7"/>
	<line class="st1" x1="88.9" y1="99.6" x2="174.9" y2="154.9"/>
</g>
<g id="Layer_2_copy">
	<g>
		<g>
			<g>
				<path d="M243.9,154.9c-5.2,0-9.4-4.2-9.4-9.4V97.4c0-5.3,4.1-9.4,9.4-9.4h1.4c4.6,0,7.2,2.5,9.1,5l20.7,27.2v-23
					c0-5.2,4.2-9.4,9.4-9.4s9.4,4.2,9.4,9.4v48.2c0,5.3-4.1,9.4-9.4,9.4H284c-4.6,0-7.2-2.5-9.1-5l-21.7-28.4v24.2
					C253.2,150.7,249,154.9,243.9,154.9z"/>
			</g>
			<g>
				<path d="M313,154.9c-5.3,0-9.4-4.1-9.4-9.4V97.2c0-5.3,4.1-9.4,9.4-9.4c5.3,0,9.4,4.1,9.4,9.4v48.3
					C322.4,150.8,318.3,154.9,313,154.9z"/>
			</g>
			<g>
				<path d="M427,155.4c-20.1,0-34.6-14.3-34.6-33.9v-0.2c0-19.1,15.2-34.1,34.5-34.1c9.1,0,15.9,2,22.3,6.4c1.2,0.9,4,3.4,4,7.6
					c0,5.2-4.2,9.4-9.4,9.4c-2.8,0-4.6-1.1-5.7-1.9c-3.6-2.6-7-3.6-11.6-3.6c-8.1,0-14.6,7.2-14.6,16.1v0.2
					c0,9.7,6.4,16.4,15.6,16.4c3.7,0,7.1-0.8,9.8-2.4v-3.6H431c-4.7,0-8.6-3.8-8.6-8.5c0-4.7,3.8-8.6,8.6-8.6h15.2
					c5.3,0,9.4,4.1,9.4,9.4v13.9c0,4.9-2,8.5-6,10.9C442.6,153.3,435,155.4,427,155.4z"/>
			</g>
			<g>
				<path d="M575.1,154.9c-3.5,0-6.4-1.5-8.8-4.5L554.2,135h-6.5v10.5c0,5.3-4.1,9.4-9.4,9.4c-5.3,0-9.4-4.1-9.4-9.4V97.7
					c0-5.3,4.1-9.4,9.4-9.4h21c8.3,0,15.1,2.4,19.6,7c3.9,3.9,6,9.4,6,15.8v0.2c0,8.7-3.6,15.3-10.5,19.4l7,8.5
					c1.4,1.7,2.8,3.8,2.8,6.9C584.1,150.9,580.1,154.9,575.1,154.9z M547.6,117.7h10.7c2.2,0,7.4-0.6,7.4-5.8v-0.2
					c0-1.5,0-5.9-7.7-5.9h-10.5V117.7z"/>
			</g>
			<g>
				<path d="M244.1,236.6c-5.3,0-9.4-4.1-9.4-9.4v-47.7c0-5.3,4.1-9.4,9.4-9.4h18.1c15.5,0,26,9.5,26,23.7v0.2
					c0,14.4-11,24.1-27.3,24.1h-7.3v9.2C253.6,232.4,249.4,236.6,244.1,236.6z M253.6,201.3h8.8c5.4,0,8.8-2.8,8.8-7.2v-0.2
					c0-4.8-3-7.2-9.1-7.2h-8.5V201.3z"/>
			</g>
			<path d="M322.1,206.8l-7.3-17.3l-7.3,17.3H322.1z M338.6,236.6c-4,0-7.2-2.2-8.9-6.3l-3.4-7.8h-23l-3.5,8.3
				c-1.6,3.7-4.8,5.8-8.7,5.8c-5,0-8.9-4-8.9-9c0-1.5,0.5-2.9,1-4l21.1-47.6c2-4.4,5.7-6.9,10.3-6.9h0.8c4.6,0,8.2,2.5,10.2,6.9
				l21.1,47.7c0.6,1.4,0.9,2.6,0.9,3.8C347.7,232.5,343.7,236.6,338.6,236.6z"/>
			<path d="M367.4,125.1l-7.3-17.3l-7.3,17.3H367.4z M383.9,154.9c-4,0-7.2-2.2-8.9-6.3l-3.4-7.8h-23l-3.5,8.3
				c-1.6,3.7-4.8,5.8-8.7,5.8c-5,0-8.9-4-8.9-9c0-1.5,0.5-2.9,1-4l21.1-47.6c2-4.4,5.7-6.9,10.3-6.9h0.8c4.6,0,8.2,2.5,10.2,6.9
				l21.1,47.7c0.6,1.4,0.9,2.6,0.9,3.8C393,150.9,389,154.9,383.9,154.9z"/>
			<path d="M498.8,125.1l-7.3-17.3l-7.2,17.3H498.8z M515.3,154.9c-4,0-7.2-2.2-8.9-6.3l-3.4-7.8h-23l-3.5,8.3
				c-1.6,3.7-4.8,5.8-8.7,5.8c-5,0-8.9-4-8.9-9c0-1.5,0.5-2.9,1-4L481,94.3c2-4.4,5.7-6.9,10.3-6.9h0.8c4.6,0,8.2,2.5,10.2,6.9
				l21.1,47.7c0.6,1.4,0.9,2.6,0.9,3.8C524.4,150.9,520.4,154.9,515.3,154.9z"/>
			<path d="M627.9,125.1l-7.3-17.3l-7.3,17.3H627.9z M644.4,154.9c-4,0-7.2-2.2-8.9-6.3l-3.3-7.8h-23l-3.5,8.3
				c-1.6,3.7-4.8,5.8-8.7,5.8c-5,0-8.9-4-8.9-9c0-1.5,0.5-2.9,1-4l21.1-47.6c2-4.4,5.7-6.9,10.3-6.9h0.8c4.6,0,8.2,2.5,10.2,6.9
				l21.1,47.7c0.6,1.4,0.9,2.6,0.9,3.8C653.5,150.9,649.5,154.9,644.4,154.9z"/>
			<g>
				<path d="M397.7,236.6c-3.5,0-6.4-1.5-8.8-4.5l-12.1-15.4h-6.5v10.5c0,5.3-4.1,9.4-9.4,9.4c-5.3,0-9.4-4.1-9.4-9.4v-47.7
					c0-5.3,4.1-9.4,9.4-9.4h21c8.3,0,15.1,2.4,19.6,7c3.9,3.9,6,9.4,6,15.8v0.2c0,8.7-3.6,15.3-10.5,19.4l7,8.5
					c1.4,1.8,2.8,3.8,2.8,6.9C406.8,232.6,402.7,236.6,397.7,236.6z M370.3,199.6h11.1c2.3,0,7.7-0.6,7.7-6v-0.2c0-1.5,0-6.1-8-6.1
					h-10.9V199.6z"/>
			</g>
			<g>
				<path d="M461.1,236.6c-4,0-6.3-2.3-7.8-4.3l-15.4-20.2l-4.5,4.2v10.9c0,5.3-4.1,9.4-9.4,9.4c-5.3,0-9.4-4.1-9.4-9.4v-48.3
					c0-5.3,4.1-9.4,9.4-9.4c5.3,0,9.4,4.1,9.4,9.4v13.6l19.8-19.7c1.6-1.6,3.9-3.4,7.6-3.4c5,0,8.9,3.9,8.9,8.9c0,2.6-1.1,4.9-3.3,7
					l-15.2,14.2l17,21.3c1.1,1.4,2.4,3.4,2.4,6.4C470.7,232.6,466.6,236.6,461.1,236.6z"/>
			</g>
			<g>
				<path d="M502,236.9c-8.7,0-17.4-2.8-24.4-7.8c-2.3-1.6-3.7-4.4-3.7-7.3c0-5,4-8.9,9-8.9c2,0,3.8,0.6,5.4,1.7
					c4.5,3.3,9.1,4.9,13.9,4.9c1.4,0,6-0.2,6-2.9v-0.2c0-1.1,0-2.4-10.1-5c-12.1-3.1-22.2-6.8-22.2-21.2v-0.2c0-12.4,9.9-21,24-21
					c7.7,0,14.6,1.9,20.7,5.8c2,1.2,4.2,3.8,4.2,7.6c0,5-4,8.9-9,8.9c-1.7,0-3.2-0.4-4.8-1.3c-4.2-2.5-7.9-3.7-11.3-3.7
					c-2.3,0-5,0.7-5,2.5v0.2c0,1.7,0.5,2.6,11,5.3c11.1,2.9,21.3,7.4,21.3,20.9v0.2C527,228.5,517.2,236.9,502,236.9z"/>
			</g>
		</g>
		<g>
			<path class="st3" d="M84.9,142L0,87.5c-0.1,16.6,13.2,29.9,19.1,35.9c5.2,5.2,15,15,12.7,19.9c-0.9,1.9-3,3.2-5.7,4.1l58.7,67.5
				V142z"/>
			<path class="st4" d="M20.3,148.8c-1.2,0.2-2.4,0.4-3.4,0.6c-1.5,0.3-3,0.5-4.3,0.8c-5.2,1.1-9,3.9-10.5,7.7
				c-1.5,3.8-0.6,8.2,2.8,13.1c7,10.1,19.3,18,24.5,21.4c0.4,0.3,0.8,0.5,1.3,0.8c3.8,2.4,12.6,8,11.4,11.6
				c-0.5,1.4-1.9,1.6-6.4,1.3c-3-0.2-6.5-0.4-9.5,0.9c-2.1,0.9-3.6,2.6-4.2,4.7c-1.3,4.5,1.1,11.1,7.5,20.9
				c8.9,13.4,17,20.4,27.1,27.5c12.1,8.4,23.6,12.2,28.2,13.5v-50.4L20.3,148.8z"/>
			<path class="st5" d="M84.9,0C71.2,1.4,63.7,11.2,62.6,20.3c-0.3,2.2-0.5,4.2-0.8,6.2c-0.9,7.2-1.6,12.7-2.6,17l25.7,44.5V0z"/>
			<path class="st6" d="M161.2,63c-4.6-2.4-9.3-3.2-12.3-3.4c-1-0.1-2.2-0.2-3.4-0.3c-7.5-0.5-17.8-1.2-23.7-5.6
				c-4.8-3.6-5.7-9.8-7.4-21.2c-0.5-3.6-1.1-7.8-2-12.4C110.1,6.3,99.6,0.8,90.3,0v114L161.2,63z"/>
			<path class="st7" d="M84.9,98.7L56.7,49.9c-0.9,1.5-2,2.8-3.4,3.8c-5.9,4.3-16.2,5.1-23.7,5.6c-1.2,0.1-2.3,0.2-3.4,0.3
				c-6.6,0.6-22,3.8-25.6,21.9l84.3,54.1V98.7z"/>
			<path class="st8" d="M90.3,273.5c4.6-1.3,16.1-5.1,28.2-13.5c10.2-7.1,18.3-14.1,27.1-27.5c6.5-9.7,8.8-16.4,7.5-20.9
				c-0.6-2.1-2.1-3.7-4.2-4.7c-3-1.3-8.5-1.5-12.6-0.8l-46.1,30.4V273.5z"/>
			<path class="st9" d="M174.8,83.2c-1.2-8.1-4.7-13.4-8.8-17l-75.7,54.4v72.4l53.4-54.4c-0.4-6.8,7.1-11.6,12.4-15.3
				C164.4,117.5,177.6,101.8,174.8,83.2z"/>
			<path class="st10" d="M90.3,230.1l44.1-29.1c15.5-10.7,28.9-19.9,35.9-30c3.4-4.8,4.3-9.2,2.8-13.1c-1.5-3.7-5.3-6.5-10.5-7.7
				c-1.3-0.3-2.7-0.5-4.3-0.8c-4.8-0.8-10.5-1.8-13.5-4.3l-54.6,55.6V230.1z"/>
		</g>
	</g>
</g>
</svg>
