<?xml version="1.0" encoding="iso-8859-1"?>
<!-- Generator: Adobe Illustrator 19.0.0, SVG Export Plug-In . SVG Version: 6.00 Build 0)  -->
<svg version="1.1" id="Layer_1" xmlns="http://www.w3.org/2000/svg" xmlns:xlink="http://www.w3.org/1999/xlink" x="0px" y="0px"
	 viewBox="0 0 512 512" style="enable-background:new 0 0 512 512;" xml:space="preserve">
<path style="fill:#FFCD69;" d="M445.217,489.739H66.783c-24.588,0-44.522-19.934-44.522-44.522V66.783
	c0-24.588,19.933-44.522,44.522-44.522h378.435c24.588,0,44.522,19.933,44.522,44.522v378.435
	C489.739,469.806,469.806,489.739,445.217,489.739z"/>
<path style="fill:#FFFF81;" d="M217.043,0c52.251,0,94.609,42.358,94.609,94.609s-42.358,94.609-94.609,94.609
	s-94.609-42.358-94.609-94.609S164.793,0,217.043,0z"/>
<path style="fill:#FFF145;" d="M217.043,44.522c27.662,0,50.087,22.424,50.087,50.087s-22.424,50.087-50.087,50.087
	s-50.087-22.424-50.087-50.087S189.381,44.522,217.043,44.522z"/>
<path style="fill:#7F932A;" d="M512,38.957v406.261H356.174V100.174c0-24.588,19.934-44.522,44.522-44.522h16.696
	c9.22,0,16.696-7.475,16.696-16.696l0,0C434.087,17.441,451.528,0,473.043,0l0,0C494.559,0,512,17.441,512,38.957z M111.304,55.652
	H94.609c-9.22,0-16.696-7.475-16.696-16.696l0,0C77.913,17.441,60.472,0,38.957,0l0,0C17.441,0,0,17.441,0,38.957v406.261h155.826
	V100.174C155.826,75.586,135.893,55.652,111.304,55.652z"/>
<path style="fill:#9FBA41;" d="M512,217.043v128H367.304V161.391c0-21.515,17.441-38.957,38.957-38.957l0,0
	c21.515,0,38.957,17.441,38.957,38.957v28.399c7.071-7.219,16.923-11.704,27.826-11.704l0,0
	C494.559,178.087,512,195.528,512,217.043z M131.772,171.944c-4.971-15.793-19.729-27.248-37.163-27.248l0,0
	c-5.994,0-11.669,1.357-16.741,3.774c-0.936-20.683-17.997-37.166-38.911-37.166l0,0C17.441,111.304,0,128.746,0,150.261v306.087
	h155.826v-244.87C155.826,194.272,146.059,179.356,131.772,171.944z"/>
<path style="fill:#606D11;" d="M512,317.217v139.13H356.174v-77.913c0-17.207,9.767-32.122,24.054-39.534
	c4.971-15.793,19.729-27.248,37.163-27.248l0,0c5.994,0,11.669,1.357,16.741,3.774c0.936-20.683,17.997-37.166,38.911-37.166l0,0
	C494.559,278.261,512,295.702,512,317.217z M105.739,211.478L105.739,211.478c-21.515,0-38.957,17.441-38.957,38.957v50.66
	c-7.071-7.219-16.923-11.704-27.826-11.704l0,0C17.441,289.391,0,306.833,0,328.348v116.87h77.913h66.783V250.435
	C144.696,228.92,127.254,211.478,105.739,211.478z"/>
<path style="fill:#91C1A4;" d="M512,450.783L512,450.783c0,33.81-27.408,61.217-61.217,61.217H61.217
	C27.408,512,0,484.592,0,450.783l0,0c0-33.81,27.408-61.217,61.217-61.217h389.565C484.592,389.565,512,416.973,512,450.783z"/>
<path style="fill:#A9D5BB;" d="M389.565,144.696v289.391h-66.783H256h-66.783h-66.783V144.696c0-18.442,14.949-33.391,33.391-33.391
	s33.391,14.949,33.391,33.391c0-18.442,14.949-33.391,33.391-33.391S256,126.254,256,144.696c0-18.442,14.949-33.391,33.391-33.391
	s33.391,14.949,33.391,33.391c0-18.442,14.949-33.391,33.391-33.391S389.565,126.254,389.565,144.696z"/>
<path style="fill:#C7FAFF;" d="M256,144.696v289.391h-66.783V144.696c0-18.442,14.949-33.391,33.391-33.391S256,126.254,256,144.696
	z M356.174,111.304c-18.442,0-33.391,14.949-33.391,33.391v289.391h66.783V144.696C389.565,126.254,374.616,111.304,356.174,111.304
	z"/>
<path style="fill:#EAFFFF;" d="M80.696,434.087c0-4.61,3.738-8.348,8.348-8.348h333.913c4.61,0,8.348,3.738,8.348,8.348
	s-3.738,8.348-8.348,8.348H89.043C84.433,442.435,80.696,438.697,80.696,434.087z M345.043,459.13H166.957
	c-4.61,0-8.348,3.738-8.348,8.348s3.738,8.348,8.348,8.348h178.087c4.61,0,8.348-3.738,8.348-8.348S349.654,459.13,345.043,459.13z
	 M122.435,459.13H66.783c-4.61,0-8.348,3.738-8.348,8.348s3.738,8.348,8.348,8.348h55.652c4.61,0,8.348-3.738,8.348-8.348
	S127.045,459.13,122.435,459.13z M445.217,459.13h-55.652c-4.61,0-8.348,3.738-8.348,8.348s3.738,8.348,8.348,8.348h55.652
	c4.61,0,8.348-3.738,8.348-8.348S449.828,459.13,445.217,459.13z"/>
<g>
</g>
<g>
</g>
<g>
</g>
<g>
</g>
<g>
</g>
<g>
</g>
<g>
</g>
<g>
</g>
<g>
</g>
<g>
</g>
<g>
</g>
<g>
</g>
<g>
</g>
<g>
</g>
<g>
</g>
</svg>
